<svg xmlns="http://www.w3.org/2000/svg" xmlns:xlink="http://www.w3.org/1999/xlink" viewBox="0,0,256,256" width="50px" height="50px" fill-rule="nonzero"><g fill="#cbd5e0" fill-rule="nonzero" stroke="none" stroke-width="1" stroke-linecap="butt" stroke-linejoin="miter" stroke-miterlimit="10" stroke-dasharray="" stroke-dashoffset="0" font-family="none" font-weight="none" font-size="none" text-anchor="none" style="mix-blend-mode: normal"><g transform="scale(5.12,5.12)"><path d="M36.875,-0.03125c-4.02344,0.11328 -8.97656,0.75391 -11.78125,3.5625l-0.6875,0.65625c-4.55469,4.58594 -4.51953,11.80078 0.0625,16.40625l5,5c2.22266,2.23047 5.14063,3.46875 8.21875,3.46875c3.04297,0 5.92969,-1.23828 8.125,-3.4375l0.65625,-0.65625c3.48828,-3.48437 3.51953,-10.67969 3.53125,-13.75c0.00391,-0.53906 -0.11719,-0.96094 -0.40625,-1.25c-0.23437,-0.23437 -0.57031,-0.34375 -0.90625,-0.34375c-0.53516,0 -0.94922,0.3125 -1.15625,0.5l-6.5,6.53125c-0.13672,0.02344 -0.45312,0.0625 -1.0625,0.0625c-2.1875,0 -5.24219,-0.42578 -6,-0.75c-0.50391,-1.10156 -0.89453,-5.92578 -0.5625,-6.9375c1.01563,-1.01562 6.55469,-6.58594 6.59375,-6.625c0.17578,-0.19922 0.75,-0.89062 0.40625,-1.65625c-0.13281,-0.29297 -0.49219,-0.77734 -1.4375,-0.78125h-0.4375c-0.52734,0 -1.08203,-0.01562 -1.65625,0zM21.375,19.9375l-19.0625,17.34375c-2.01953,2.02344 -3.80859,6.65625 0,10.46875c1.75391,1.75391 3.58984,2.21875 5.0625,2.21875c0.37891,0 0.71094,-0.04297 1.03125,-0.09375c1.90625,-0.28516 3.49609,-1.27344 4.375,-2.15625l17.3125,-19.0625l-1.59375,-1.21875l-5.90625,-5.90625z"></path></g></g></svg>